# MagicaVoxel @ Ephtracy

# group
o 

# material
mtllib player-6.mtl
usemtl palette

# normals
vn -1 0 0
vn 1 0 0
vn 0 0 1
vn 0 0 -1
vn 0 -1 0
vn 0 1 0

# texcoords
vt 0.751953 0.5
vt 0.841797 0.5
vt 0.919922 0.5
vt 0.966797 0.5

# verts
v -0.9 1.5 0.4
v -0.9 1.5 0
v -0.9 2.9 0.4
v -0.9 2.9 0
v -0.8 2.9 0.4
v -0.8 2.9 0
v -0.8 3 0.4
v -0.8 3 0
v -0.6 1.3 0.4
v -0.6 1.3 0
v -0.6 1.5 0.5
v -0.6 1.5 0.4
v -0.6 1.5 0
v -0.6 1.6 0
v -0.6 1.6 -0.1
v -0.6 2.9 0.5
v -0.6 2.9 0.4
v -0.6 2.9 0
v -0.6 2.9 -0.1
v -0.5 1.4 0.5
v -0.5 1.4 0.4
v -0.5 1.5 0.5
v -0.5 1.5 0.4
v -0.5 1.5 0
v -0.5 1.5 -0.1
v -0.5 1.6 0
v -0.5 1.6 -0.1
v -0.5 1.6 -0.4
v -0.5 1.7 -0.4
v -0.5 1.7 -0.5
v -0.5 2.8 -0.4
v -0.5 2.8 -0.5
v -0.5 2.9 0.5
v -0.5 2.9 0.4
v -0.5 2.9 0
v -0.5 2.9 -0.1
v -0.5 2.9 -0.4
v -0.5 3 0.5
v -0.5 3 0.4
v -0.5 3 0
v -0.5 3 -0.1
v -0.4 1.4 0
v -0.4 1.4 -0.1
v -0.4 1.5 0
v -0.4 1.5 -0.1
v -0.4 1.5 -0.2
v -0.4 1.6 -0.1
v -0.4 1.6 -0.2
v -0.4 1.6 -0.4
v -0.4 1.6 -0.5
v -0.4 1.7 -0.4
v -0.4 1.7 -0.5
v -0.4 2.8 -0.4
v -0.4 2.8 -0.5
v -0.4 2.9 -0.4
v -0.4 2.9 -0.5
v -0.4 3.3 0.4
v -0.4 3.3 0.3
v -0.4 3.3 -0.1
v -0.4 3.4 0.5
v -0.4 3.4 0.4
v -0.4 3.4 0.3
v -0.4 3.4 0.2
v -0.4 3.6 0.3
v -0.4 3.6 0.2
v -0.4 3.7 0.5
v -0.4 3.7 0.4
v -0.4 3.8 0.4
v -0.4 3.8 0.3
v -0.4 3.8 -0.1
v -0.3 3.2 0.5
v -0.3 3.2 -0.1
v -0.3 3.3 0.5
v -0.3 3.3 0.4
v -0.3 3.3 0.3
v -0.3 3.3 -0.1
v -0.3 3.3 -0.2
v -0.3 3.4 0.5
v -0.3 3.4 0.4
v -0.3 3.7 0.5
v -0.3 3.7 0.4
v -0.3 3.8 0.5
v -0.3 3.8 0.4
v -0.3 3.8 0.3
v -0.3 3.8 -0.1
v -0.3 3.8 -0.2
v -0.3 3.9 0.4
v -0.3 3.9 0.3
v -0.3 3.9 -0.1
v -0.2 3 0.3
v -0.2 3 0
v -0.2 3.2 0.3
v -0.2 3.2 0
v -0.2 3.2 -0.1
v -0.2 3.2 -0.2
v -0.2 3.3 -0.1
v -0.2 3.3 -0.2
v -0.2 3.8 0.5
v -0.2 3.8 0.4
v -0.2 3.9 0.5
v -0.2 3.9 0.4
v 0.2 3 0.3
v 0.2 3 0
v 0.2 3.2 0.3
v 0.2 3.2 0
v 0.2 3.2 -0.1
v 0.2 3.2 -0.2
v 0.2 3.3 -0.1
v 0.2 3.3 -0.2
v 0.2 3.8 0.5
v 0.2 3.8 0.4
v 0.2 3.9 0.5
v 0.2 3.9 0.4
v 0.3 3.2 0.5
v 0.3 3.2 -0.1
v 0.3 3.3 0.5
v 0.3 3.3 0.4
v 0.3 3.3 0.3
v 0.3 3.3 -0.1
v 0.3 3.3 -0.2
v 0.3 3.4 0.5
v 0.3 3.4 0.4
v 0.3 3.7 0.5
v 0.3 3.7 0.4
v 0.3 3.8 0.5
v 0.3 3.8 0.4
v 0.3 3.8 0.3
v 0.3 3.8 -0.1
v 0.3 3.8 -0.2
v 0.3 3.9 0.4
v 0.3 3.9 0.3
v 0.3 3.9 -0.1
v 0.4 1.4 0
v 0.4 1.4 -0.1
v 0.4 1.5 0
v 0.4 1.5 -0.1
v 0.4 1.5 -0.2
v 0.4 1.6 -0.1
v 0.4 1.6 -0.2
v 0.4 1.6 -0.4
v 0.4 1.6 -0.5
v 0.4 1.7 -0.4
v 0.4 1.7 -0.5
v 0.4 2.8 -0.4
v 0.4 2.8 -0.5
v 0.4 2.9 -0.4
v 0.4 2.9 -0.5
v 0.4 3.3 0.4
v 0.4 3.3 0.3
v 0.4 3.3 -0.1
v 0.4 3.4 0.5
v 0.4 3.4 0.4
v 0.4 3.4 0.3
v 0.4 3.4 0.2
v 0.4 3.6 0.3
v 0.4 3.6 0.2
v 0.4 3.7 0.5
v 0.4 3.7 0.4
v 0.4 3.8 0.4
v 0.4 3.8 0.3
v 0.4 3.8 -0.1
v 0.5 1.4 0.5
v 0.5 1.4 0.4
v 0.5 1.5 0.5
v 0.5 1.5 0.4
v 0.5 1.5 0
v 0.5 1.5 -0.1
v 0.5 1.6 0
v 0.5 1.6 -0.1
v 0.5 1.6 -0.4
v 0.5 1.7 -0.4
v 0.5 1.7 -0.5
v 0.5 2.8 -0.4
v 0.5 2.8 -0.5
v 0.5 2.9 0.5
v 0.5 2.9 0.4
v 0.5 2.9 0
v 0.5 2.9 -0.1
v 0.5 2.9 -0.4
v 0.5 3 0.5
v 0.5 3 0.4
v 0.5 3 0
v 0.5 3 -0.1
v 0.6 1.3 0.4
v 0.6 1.3 0
v 0.6 1.5 0.5
v 0.6 1.5 0.4
v 0.6 1.5 0
v 0.6 1.6 0
v 0.6 1.6 -0.1
v 0.6 2.9 0.5
v 0.6 2.9 0.4
v 0.6 2.9 0
v 0.6 2.9 -0.1
v 0.8 2.9 0.4
v 0.8 2.9 0
v 0.8 3 0.4
v 0.8 3 0
v 0.9 1.5 0.4
v 0.9 1.5 0
v 0.9 2.9 0.4
v 0.9 2.9 0
v -0.6 1.5 0.5
v -0.6 2.9 0.5
v -0.5 1.4 0.5
v -0.5 1.5 0.5
v -0.5 2.9 0.5
v -0.5 3 0.5
v -0.4 3.4 0.5
v -0.4 3.7 0.5
v -0.3 3.2 0.5
v -0.3 3.3 0.5
v -0.3 3.4 0.5
v -0.3 3.7 0.5
v -0.3 3.8 0.5
v -0.2 3.8 0.5
v -0.2 3.9 0.5
v 0.2 3.8 0.5
v 0.2 3.9 0.5
v 0.3 3.2 0.5
v 0.3 3.3 0.5
v 0.3 3.4 0.5
v 0.3 3.7 0.5
v 0.3 3.8 0.5
v 0.4 3.4 0.5
v 0.4 3.7 0.5
v 0.5 1.4 0.5
v 0.5 1.5 0.5
v 0.5 2.9 0.5
v 0.5 3 0.5
v 0.6 1.5 0.5
v 0.6 2.9 0.5
v -0.9 1.5 0.4
v -0.9 2.9 0.4
v -0.8 2.9 0.4
v -0.8 3 0.4
v -0.6 1.3 0.4
v -0.6 1.5 0.4
v -0.6 2.9 0.4
v -0.5 1.4 0.4
v -0.5 1.5 0.4
v -0.5 2.9 0.4
v -0.5 3 0.4
v -0.4 3.3 0.4
v -0.4 3.4 0.4
v -0.4 3.7 0.4
v -0.4 3.8 0.4
v -0.3 3.3 0.4
v -0.3 3.4 0.4
v -0.3 3.7 0.4
v -0.3 3.8 0.4
v -0.3 3.9 0.4
v -0.2 3.8 0.4
v -0.2 3.9 0.4
v 0.2 3.8 0.4
v 0.2 3.9 0.4
v 0.3 3.3 0.4
v 0.3 3.4 0.4
v 0.3 3.7 0.4
v 0.3 3.8 0.4
v 0.3 3.9 0.4
v 0.4 3.3 0.4
v 0.4 3.4 0.4
v 0.4 3.7 0.4
v 0.4 3.8 0.4
v 0.5 1.4 0.4
v 0.5 1.5 0.4
v 0.5 2.9 0.4
v 0.5 3 0.4
v 0.6 1.3 0.4
v 0.6 1.5 0.4
v 0.6 2.9 0.4
v 0.8 2.9 0.4
v 0.8 3 0.4
v 0.9 1.5 0.4
v 0.9 2.9 0.4
v -0.2 3 0.3
v -0.2 3.2 0.3
v 0.2 3 0.3
v 0.2 3.2 0.3
v -0.9 1.5 0
v -0.9 2.9 0
v -0.8 2.9 0
v -0.8 3 0
v -0.6 1.3 0
v -0.6 1.5 0
v -0.6 1.6 0
v -0.6 2.9 0
v -0.5 1.5 0
v -0.5 1.6 0
v -0.5 2.9 0
v -0.5 3 0
v -0.4 1.4 0
v -0.4 1.5 0
v -0.2 3 0
v -0.2 3.2 0
v 0.2 3 0
v 0.2 3.2 0
v 0.4 1.4 0
v 0.4 1.5 0
v 0.5 1.5 0
v 0.5 1.6 0
v 0.5 2.9 0
v 0.5 3 0
v 0.6 1.3 0
v 0.6 1.5 0
v 0.6 1.6 0
v 0.6 2.9 0
v 0.8 2.9 0
v 0.8 3 0
v 0.9 1.5 0
v 0.9 2.9 0
v -0.6 1.6 -0.1
v -0.6 2.9 -0.1
v -0.5 1.5 -0.1
v -0.5 1.6 -0.1
v -0.5 2.9 -0.1
v -0.5 3 -0.1
v -0.4 1.4 -0.1
v -0.4 1.5 -0.1
v -0.4 1.6 -0.1
v -0.4 3.3 -0.1
v -0.4 3.8 -0.1
v -0.3 3.2 -0.1
v -0.3 3.3 -0.1
v -0.3 3.8 -0.1
v -0.3 3.9 -0.1
v -0.2 3.2 -0.1
v -0.2 3.3 -0.1
v 0.2 3.2 -0.1
v 0.2 3.3 -0.1
v 0.3 3.2 -0.1
v 0.3 3.3 -0.1
v 0.3 3.8 -0.1
v 0.3 3.9 -0.1
v 0.4 1.4 -0.1
v 0.4 1.5 -0.1
v 0.4 1.6 -0.1
v 0.4 3.3 -0.1
v 0.4 3.8 -0.1
v 0.5 1.5 -0.1
v 0.5 1.6 -0.1
v 0.5 2.9 -0.1
v 0.5 3 -0.1
v 0.6 1.6 -0.1
v 0.6 2.9 -0.1
v -0.4 1.5 -0.2
v -0.4 1.6 -0.2
v -0.3 3.3 -0.2
v -0.3 3.8 -0.2
v -0.2 3.2 -0.2
v -0.2 3.3 -0.2
v 0.2 3.2 -0.2
v 0.2 3.3 -0.2
v 0.3 3.3 -0.2
v 0.3 3.8 -0.2
v 0.4 1.5 -0.2
v 0.4 1.6 -0.2
v -0.5 1.6 -0.4
v -0.5 1.7 -0.4
v -0.5 2.8 -0.4
v -0.5 2.9 -0.4
v -0.4 1.6 -0.4
v -0.4 1.7 -0.4
v -0.4 2.8 -0.4
v -0.4 2.9 -0.4
v 0.4 1.6 -0.4
v 0.4 1.7 -0.4
v 0.4 2.8 -0.4
v 0.4 2.9 -0.4
v 0.5 1.6 -0.4
v 0.5 1.7 -0.4
v 0.5 2.8 -0.4
v 0.5 2.9 -0.4
v -0.5 1.7 -0.5
v -0.5 2.8 -0.5
v -0.4 1.6 -0.5
v -0.4 1.7 -0.5
v -0.4 2 -0.5
v -0.4 2.1 -0.5
v -0.4 2.2 -0.5
v -0.4 2.3 -0.5
v -0.4 2.4 -0.5
v -0.4 2.5 -0.5
v -0.4 2.8 -0.5
v -0.4 2.9 -0.5
v -0.3 1.9 -0.5
v -0.3 2 -0.5
v -0.3 2.1 -0.5
v -0.3 2.2 -0.5
v -0.3 2.3 -0.5
v -0.3 2.4 -0.5
v -0.3 2.5 -0.5
v -0.3 2.6 -0.5
v -0.2 1.8 -0.5
v -0.2 1.9 -0.5
v -0.2 2 -0.5
v -0.2 2.1 -0.5
v -0.2 2.2 -0.5
v -0.2 2.3 -0.5
v -0.2 2.4 -0.5
v -0.2 2.5 -0.5
v -0.2 2.6 -0.5
v -0.2 2.7 -0.5
v -0.1 1.8 -0.5
v -0.1 1.9 -0.5
v -0.1 2 -0.5
v -0.1 2.5 -0.5
v -0.1 2.6 -0.5
v -0.1 2.7 -0.5
v 0.1 1.8 -0.5
v 0.1 1.9 -0.5
v 0.1 2 -0.5
v 0.1 2.5 -0.5
v 0.1 2.6 -0.5
v 0.1 2.7 -0.5
v 0.2 1.8 -0.5
v 0.2 1.9 -0.5
v 0.2 2 -0.5
v 0.2 2.1 -0.5
v 0.2 2.2 -0.5
v 0.2 2.3 -0.5
v 0.2 2.4 -0.5
v 0.2 2.5 -0.5
v 0.2 2.6 -0.5
v 0.2 2.7 -0.5
v 0.3 1.9 -0.5
v 0.3 2 -0.5
v 0.3 2.1 -0.5
v 0.3 2.2 -0.5
v 0.3 2.3 -0.5
v 0.3 2.4 -0.5
v 0.3 2.5 -0.5
v 0.3 2.6 -0.5
v 0.4 1.6 -0.5
v 0.4 1.7 -0.5
v 0.4 2 -0.5
v 0.4 2.1 -0.5
v 0.4 2.2 -0.5
v 0.4 2.3 -0.5
v 0.4 2.4 -0.5
v 0.4 2.5 -0.5
v 0.4 2.8 -0.5
v 0.4 2.9 -0.5
v 0.5 1.7 -0.5
v 0.5 2.8 -0.5
v -0.6 1.3 0.4
v 0.6 1.3 0.4
v -0.6 1.3 0
v 0.6 1.3 0
v -0.5 1.4 0.5
v 0.5 1.4 0.5
v -0.5 1.4 0.4
v 0.5 1.4 0.4
v -0.4 1.4 0
v 0.4 1.4 0
v -0.4 1.4 -0.1
v 0.4 1.4 -0.1
v -0.6 1.5 0.5
v -0.5 1.5 0.5
v 0.5 1.5 0.5
v 0.6 1.5 0.5
v -0.9 1.5 0.4
v -0.6 1.5 0.4
v -0.5 1.5 0.4
v 0.5 1.5 0.4
v 0.6 1.5 0.4
v 0.9 1.5 0.4
v -0.9 1.5 0
v -0.6 1.5 0
v -0.5 1.5 0
v -0.4 1.5 0
v 0.4 1.5 0
v 0.5 1.5 0
v 0.6 1.5 0
v 0.9 1.5 0
v -0.5 1.5 -0.1
v -0.4 1.5 -0.1
v 0.4 1.5 -0.1
v 0.5 1.5 -0.1
v -0.4 1.5 -0.2
v 0.4 1.5 -0.2
v -0.6 1.6 0
v -0.5 1.6 0
v 0.5 1.6 0
v 0.6 1.6 0
v -0.6 1.6 -0.1
v -0.5 1.6 -0.1
v -0.4 1.6 -0.1
v 0.4 1.6 -0.1
v 0.5 1.6 -0.1
v 0.6 1.6 -0.1
v -0.4 1.6 -0.2
v 0.4 1.6 -0.2
v -0.5 1.6 -0.4
v -0.4 1.6 -0.4
v 0.4 1.6 -0.4
v 0.5 1.6 -0.4
v -0.4 1.6 -0.5
v 0.4 1.6 -0.5
v -0.5 1.7 -0.4
v -0.4 1.7 -0.4
v 0.4 1.7 -0.4
v 0.5 1.7 -0.4
v -0.5 1.7 -0.5
v -0.4 1.7 -0.5
v 0.4 1.7 -0.5
v 0.5 1.7 -0.5
v -0.3 3.2 0.5
v 0.3 3.2 0.5
v -0.2 3.2 0.3
v 0.2 3.2 0.3
v -0.2 3.2 0
v 0.2 3.2 0
v -0.3 3.2 -0.1
v -0.2 3.2 -0.1
v 0.2 3.2 -0.1
v 0.3 3.2 -0.1
v -0.2 3.2 -0.2
v 0.2 3.2 -0.2
v -0.4 3.3 0.4
v -0.3 3.3 0.4
v 0.3 3.3 0.4
v 0.4 3.3 0.4
v -0.4 3.3 0.3
v -0.3 3.3 0.3
v 0.3 3.3 0.3
v 0.4 3.3 0.3
v -0.4 3.3 -0.1
v -0.3 3.3 -0.1
v -0.2 3.3 -0.1
v 0.2 3.3 -0.1
v 0.3 3.3 -0.1
v 0.4 3.3 -0.1
v -0.3 3.3 -0.2
v -0.2 3.3 -0.2
v 0.2 3.3 -0.2
v 0.3 3.3 -0.2
v -0.4 3.4 0.5
v -0.3 3.4 0.5
v 0.3 3.4 0.5
v 0.4 3.4 0.5
v -0.4 3.4 0.4
v -0.3 3.4 0.4
v 0.3 3.4 0.4
v 0.4 3.4 0.4
v -0.5 2.8 -0.4
v -0.4 2.8 -0.4
v 0.4 2.8 -0.4
v 0.5 2.8 -0.4
v -0.5 2.8 -0.5
v -0.4 2.8 -0.5
v 0.4 2.8 -0.5
v 0.5 2.8 -0.5
v -0.6 2.9 0.5
v -0.5 2.9 0.5
v 0.5 2.9 0.5
v 0.6 2.9 0.5
v -0.9 2.9 0.4
v -0.8 2.9 0.4
v -0.6 2.9 0.4
v -0.5 2.9 0.4
v 0.5 2.9 0.4
v 0.6 2.9 0.4
v 0.8 2.9 0.4
v 0.9 2.9 0.4
v -0.9 2.9 0
v -0.8 2.9 0
v -0.6 2.9 0
v -0.5 2.9 0
v 0.5 2.9 0
v 0.6 2.9 0
v 0.8 2.9 0
v 0.9 2.9 0
v -0.6 2.9 -0.1
v -0.5 2.9 -0.1
v 0.5 2.9 -0.1
v 0.6 2.9 -0.1
v -0.5 2.9 -0.4
v -0.4 2.9 -0.4
v 0.4 2.9 -0.4
v 0.5 2.9 -0.4
v -0.4 2.9 -0.5
v 0.4 2.9 -0.5
v -0.5 3 0.5
v 0.5 3 0.5
v -0.8 3 0.4
v -0.5 3 0.4
v 0.5 3 0.4
v 0.8 3 0.4
v -0.2 3 0.3
v 0.2 3 0.3
v -0.8 3 0
v -0.5 3 0
v -0.2 3 0
v 0.2 3 0
v 0.5 3 0
v 0.8 3 0
v -0.5 3 -0.1
v 0.5 3 -0.1
v -0.4 3.7 0.5
v -0.3 3.7 0.5
v 0.3 3.7 0.5
v 0.4 3.7 0.5
v -0.4 3.7 0.4
v -0.3 3.7 0.4
v 0.3 3.7 0.4
v 0.4 3.7 0.4
v -0.3 3.8 0.5
v -0.2 3.8 0.5
v 0.2 3.8 0.5
v 0.3 3.8 0.5
v -0.4 3.8 0.4
v -0.3 3.8 0.4
v -0.2 3.8 0.4
v 0.2 3.8 0.4
v 0.3 3.8 0.4
v 0.4 3.8 0.4
v -0.4 3.8 0.3
v -0.3 3.8 0.3
v 0.3 3.8 0.3
v 0.4 3.8 0.3
v -0.4 3.8 -0.1
v -0.3 3.8 -0.1
v 0.3 3.8 -0.1
v 0.4 3.8 -0.1
v -0.3 3.8 -0.2
v 0.3 3.8 -0.2
v -0.2 3.9 0.5
v 0.2 3.9 0.5
v -0.3 3.9 0.4
v -0.2 3.9 0.4
v 0.2 3.9 0.4
v 0.3 3.9 0.4
v -0.3 3.9 0.3
v 0.3 3.9 0.3
v -0.3 3.9 -0.1
v 0.3 3.9 -0.1

# faces
f 3/4/1 2/4/1 1/4/1
f 4/4/1 2/4/1 3/4/1
f 7/4/1 6/4/1 5/4/1
f 8/4/1 6/4/1 7/4/1
f 12/4/1 10/4/1 9/4/1
f 13/4/1 10/4/1 12/4/1
f 16/4/1 12/4/1 11/4/1
f 17/4/1 12/4/1 16/4/1
f 18/4/1 15/4/1 14/4/1
f 19/4/1 15/4/1 18/4/1
f 22/4/1 21/4/1 20/4/1
f 23/4/1 21/4/1 22/4/1
f 26/4/1 25/4/1 24/4/1
f 27/4/1 25/4/1 26/4/1
f 29/4/1 28/4/1 27/4/1
f 31/4/1 29/4/1 27/4/1
f 31/4/1 30/4/1 29/4/1
f 32/4/1 30/4/1 31/4/1
f 36/4/1 31/4/1 27/4/1
f 37/4/1 31/4/1 36/4/1
f 38/4/1 34/4/1 33/4/1
f 39/4/1 34/4/1 38/4/1
f 40/4/1 36/4/1 35/4/1
f 41/4/1 36/4/1 40/4/1
f 44/4/1 43/4/1 42/4/1
f 45/4/1 43/4/1 44/4/1
f 47/4/1 46/4/1 45/4/1
f 48/4/1 46/4/1 47/4/1
f 51/4/1 50/4/1 49/4/1
f 52/4/1 50/4/1 51/4/1
f 55/4/1 54/4/1 53/4/1
f 56/4/1 54/4/1 55/4/1
f 61/1/1 58/1/1 57/1/1
f 62/4/1 59/4/1 58/4/1
f 62/1/1 58/1/1 61/1/1
f 63/4/1 59/4/1 62/4/1
f 64/1/1 61/1/1 60/1/1
f 64/1/1 62/1/1 61/1/1
f 64/1/1 63/1/1 62/1/1
f 65/4/1 59/4/1 63/4/1
f 65/1/1 63/1/1 64/1/1
f 66/1/1 64/1/1 60/1/1
f 67/1/1 64/1/1 66/1/1
f 68/1/1 64/1/1 67/1/1
f 69/4/1 65/4/1 64/4/1
f 69/1/1 64/1/1 68/1/1
f 70/4/1 59/4/1 65/4/1
f 70/4/1 65/4/1 69/4/1
f 73/4/1 72/4/1 71/4/1
f 74/4/1 72/4/1 73/4/1
f 75/4/1 72/4/1 74/4/1
f 76/4/1 72/4/1 75/4/1
f 78/1/1 74/1/1 73/1/1
f 79/1/1 74/1/1 78/1/1
f 82/1/1 81/1/1 80/1/1
f 83/1/1 81/1/1 82/1/1
f 85/4/1 77/4/1 76/4/1
f 86/4/1 77/4/1 85/4/1
f 87/1/1 84/1/1 83/1/1
f 88/4/1 85/4/1 84/4/1
f 88/1/1 84/1/1 87/1/1
f 89/4/1 85/4/1 88/4/1
f 92/4/1 91/4/1 90/4/1
f 93/4/1 91/4/1 92/4/1
f 96/4/1 95/4/1 94/4/1
f 97/4/1 95/4/1 96/4/1
f 100/1/1 99/1/1 98/1/1
f 101/1/1 99/1/1 100/1/1
f 102/4/2 103/4/2 104/4/2
f 104/4/2 103/4/2 105/4/2
f 106/4/2 107/4/2 108/4/2
f 108/4/2 107/4/2 109/4/2
f 110/1/2 111/1/2 112/1/2
f 112/1/2 111/1/2 113/1/2
f 114/4/2 115/4/2 116/4/2
f 116/4/2 115/4/2 117/4/2
f 117/4/2 115/4/2 118/4/2
f 118/4/2 115/4/2 119/4/2
f 116/1/2 117/1/2 121/1/2
f 121/1/2 117/1/2 122/1/2
f 123/1/2 124/1/2 125/1/2
f 125/1/2 124/1/2 126/1/2
f 119/4/2 120/4/2 128/4/2
f 128/4/2 120/4/2 129/4/2
f 126/1/2 127/1/2 130/1/2
f 127/4/2 128/4/2 131/4/2
f 130/1/2 127/1/2 131/1/2
f 131/4/2 128/4/2 132/4/2
f 133/4/2 134/4/2 135/4/2
f 135/4/2 134/4/2 136/4/2
f 136/4/2 137/4/2 138/4/2
f 138/4/2 137/4/2 139/4/2
f 140/4/2 141/4/2 142/4/2
f 142/4/2 141/4/2 143/4/2
f 144/4/2 145/4/2 146/4/2
f 146/4/2 145/4/2 147/4/2
f 148/1/2 149/1/2 152/1/2
f 149/4/2 150/4/2 153/4/2
f 152/1/2 149/1/2 153/1/2
f 153/4/2 150/4/2 154/4/2
f 151/1/2 152/1/2 155/1/2
f 152/1/2 153/1/2 155/1/2
f 153/1/2 154/1/2 155/1/2
f 154/4/2 150/4/2 156/4/2
f 155/1/2 154/1/2 156/1/2
f 151/1/2 155/1/2 157/1/2
f 157/1/2 155/1/2 158/1/2
f 158/1/2 155/1/2 159/1/2
f 155/4/2 156/4/2 160/4/2
f 159/1/2 155/1/2 160/1/2
f 156/4/2 150/4/2 161/4/2
f 160/4/2 156/4/2 161/4/2
f 162/4/2 163/4/2 164/4/2
f 164/4/2 163/4/2 165/4/2
f 166/4/2 167/4/2 168/4/2
f 168/4/2 167/4/2 169/4/2
f 169/4/2 170/4/2 171/4/2
f 169/4/2 171/4/2 173/4/2
f 171/4/2 172/4/2 173/4/2
f 173/4/2 172/4/2 174/4/2
f 169/4/2 173/4/2 178/4/2
f 178/4/2 173/4/2 179/4/2
f 175/4/2 176/4/2 180/4/2
f 180/4/2 176/4/2 181/4/2
f 177/4/2 178/4/2 182/4/2
f 182/4/2 178/4/2 183/4/2
f 184/4/2 185/4/2 187/4/2
f 187/4/2 185/4/2 188/4/2
f 186/4/2 187/4/2 191/4/2
f 191/4/2 187/4/2 192/4/2
f 189/4/2 190/4/2 193/4/2
f 193/4/2 190/4/2 194/4/2
f 195/4/2 196/4/2 197/4/2
f 197/4/2 196/4/2 198/4/2
f 199/4/2 200/4/2 201/4/2
f 201/4/2 200/4/2 202/4/2
f 206/4/3 204/4/3 203/4/3
f 207/4/3 204/4/3 206/4/3
f 213/1/3 210/1/3 209/1/3
f 214/1/3 210/1/3 213/1/3
f 216/1/3 213/1/3 212/1/3
f 216/1/3 215/1/3 214/1/3
f 216/1/3 214/1/3 213/1/3
f 218/1/3 216/1/3 212/1/3
f 218/1/3 217/1/3 216/1/3
f 219/1/3 217/1/3 218/1/3
f 220/4/3 212/4/3 211/4/3
f 221/1/3 218/1/3 212/1/3
f 221/4/3 212/4/3 220/4/3
f 222/1/3 218/1/3 221/1/3
f 223/1/3 218/1/3 222/1/3
f 224/1/3 218/1/3 223/1/3
f 225/1/3 223/1/3 222/1/3
f 226/1/3 223/1/3 225/1/3
f 227/4/3 206/4/3 205/4/3
f 227/4/3 207/4/3 206/4/3
f 227/4/3 208/4/3 207/4/3
f 228/4/3 208/4/3 227/4/3
f 229/4/3 208/4/3 228/4/3
f 230/4/3 208/4/3 229/4/3
f 231/4/3 229/4/3 228/4/3
f 232/4/3 229/4/3 231/4/3
f 235/4/3 234/4/3 233/4/3
f 238/4/3 235/4/3 233/4/3
f 238/4/3 236/4/3 235/4/3
f 239/4/3 236/4/3 238/4/3
f 240/4/3 238/4/3 237/4/3
f 241/4/3 238/4/3 240/4/3
f 242/4/3 236/4/3 239/4/3
f 243/4/3 236/4/3 242/4/3
f 248/1/3 245/1/3 244/1/3
f 249/1/3 245/1/3 248/1/3
f 250/1/3 247/1/3 246/1/3
f 251/1/3 247/1/3 250/1/3
f 253/1/3 252/1/3 251/1/3
f 254/1/3 252/1/3 253/1/3
f 260/1/3 256/1/3 255/1/3
f 261/1/3 256/1/3 260/1/3
f 262/1/3 258/1/3 257/1/3
f 263/1/3 258/1/3 262/1/3
f 264/1/3 260/1/3 259/1/3
f 265/1/3 260/1/3 264/1/3
f 266/4/3 240/4/3 237/4/3
f 270/4/3 266/4/3 237/4/3
f 270/4/3 267/4/3 266/4/3
f 271/4/3 267/4/3 270/4/3
f 272/4/3 269/4/3 268/4/3
f 273/4/3 272/4/3 271/4/3
f 273/4/3 269/4/3 272/4/3
f 274/4/3 269/4/3 273/4/3
f 275/4/3 273/4/3 271/4/3
f 276/4/3 273/4/3 275/4/3
f 279/4/3 278/4/3 277/4/3
f 280/4/3 278/4/3 279/4/3
f 281/4/4 282/4/4 283/4/4
f 281/4/4 283/4/4 286/4/4
f 283/4/4 284/4/4 286/4/4
f 286/4/4 284/4/4 287/4/4
f 287/4/4 284/4/4 288/4/4
f 285/4/4 286/4/4 289/4/4
f 286/4/4 287/4/4 289/4/4
f 289/4/4 287/4/4 290/4/4
f 288/4/4 284/4/4 291/4/4
f 291/4/4 284/4/4 292/4/4
f 285/4/4 289/4/4 293/4/4
f 293/4/4 289/4/4 294/4/4
f 295/4/4 296/4/4 297/4/4
f 297/4/4 296/4/4 298/4/4
f 285/4/4 293/4/4 299/4/4
f 299/4/4 300/4/4 301/4/4
f 285/4/4 299/4/4 305/4/4
f 299/4/4 301/4/4 305/4/4
f 301/4/4 302/4/4 305/4/4
f 305/4/4 302/4/4 306/4/4
f 306/4/4 302/4/4 307/4/4
f 303/4/4 304/4/4 308/4/4
f 306/4/4 307/4/4 309/4/4
f 307/4/4 308/4/4 309/4/4
f 308/4/4 304/4/4 309/4/4
f 309/4/4 304/4/4 310/4/4
f 306/4/4 309/4/4 311/4/4
f 311/4/4 309/4/4 312/4/4
f 313/4/4 314/4/4 316/4/4
f 316/4/4 314/4/4 317/4/4
f 315/4/4 316/4/4 320/4/4
f 320/4/4 316/4/4 321/4/4
f 322/4/4 323/4/4 325/4/4
f 325/4/4 323/4/4 326/4/4
f 324/4/4 325/4/4 328/4/4
f 328/4/4 325/4/4 329/4/4
f 330/4/4 331/4/4 332/4/4
f 332/4/4 331/4/4 333/4/4
f 326/4/4 327/4/4 334/4/4
f 334/4/4 327/4/4 335/4/4
f 319/4/4 320/4/4 336/4/4
f 336/4/4 320/4/4 337/4/4
f 333/4/4 334/4/4 339/4/4
f 339/4/4 334/4/4 340/4/4
f 337/4/4 338/4/4 341/4/4
f 341/4/4 338/4/4 342/4/4
f 317/4/4 318/4/4 343/4/4
f 343/4/4 318/4/4 344/4/4
f 342/4/4 343/4/4 345/4/4
f 345/4/4 343/4/4 346/4/4
f 349/4/4 350/4/4 352/4/4
f 351/4/4 352/4/4 353/4/4
f 352/4/4 350/4/4 354/4/4
f 353/4/4 352/4/4 354/4/4
f 354/4/4 350/4/4 355/4/4
f 355/4/4 350/4/4 356/4/4
f 347/4/4 348/4/4 357/4/4
f 357/4/4 348/4/4 358/4/4
f 359/4/4 360/4/4 363/4/4
f 363/4/4 360/4/4 364/4/4
f 361/4/4 362/4/4 365/4/4
f 365/4/4 362/4/4 366/4/4
f 367/4/4 368/4/4 371/4/4
f 371/4/4 368/4/4 372/4/4
f 369/4/4 370/4/4 373/4/4
f 373/4/4 370/4/4 374/4/4
f 375/4/4 376/4/4 378/4/4
f 378/4/4 376/4/4 379/4/4
f 379/4/4 376/4/4 380/4/4
f 380/4/4 376/4/4 381/4/4
f 381/4/4 376/4/4 382/4/4
f 382/4/4 376/4/4 383/4/4
f 383/4/4 376/4/4 384/4/4
f 384/4/4 376/4/4 385/4/4
f 378/2/4 379/2/4 387/2/4
f 379/3/4 380/3/4 388/3/4
f 387/2/4 379/2/4 388/2/4
f 380/2/4 381/2/4 389/2/4
f 388/3/4 380/3/4 389/3/4
f 381/3/4 382/3/4 390/3/4
f 389/2/4 381/2/4 390/2/4
f 382/2/4 383/2/4 391/2/4
f 390/3/4 382/3/4 391/3/4
f 383/3/4 384/3/4 392/3/4
f 391/2/4 383/2/4 392/2/4
f 384/2/4 385/2/4 393/2/4
f 392/3/4 384/3/4 393/3/4
f 393/2/4 385/2/4 394/2/4
f 378/2/4 387/2/4 395/2/4
f 387/3/4 388/3/4 396/3/4
f 395/2/4 387/2/4 396/2/4
f 388/2/4 389/2/4 397/2/4
f 396/3/4 388/3/4 397/3/4
f 389/3/4 390/3/4 398/3/4
f 397/2/4 389/2/4 398/2/4
f 390/3/4 391/3/4 398/3/4
f 391/3/4 392/3/4 398/3/4
f 398/3/4 392/3/4 399/3/4
f 399/3/4 392/3/4 400/3/4
f 392/2/4 393/2/4 401/2/4
f 400/3/4 392/3/4 401/3/4
f 393/3/4 394/3/4 402/3/4
f 401/2/4 393/2/4 402/2/4
f 394/2/4 385/2/4 403/2/4
f 402/3/4 394/3/4 403/3/4
f 403/2/4 385/2/4 404/2/4
f 378/2/4 395/2/4 405/2/4
f 395/3/4 396/3/4 405/3/4
f 396/2/4 397/2/4 406/2/4
f 405/3/4 396/3/4 406/3/4
f 397/3/4 398/3/4 407/3/4
f 406/2/4 397/2/4 407/2/4
f 401/3/4 402/3/4 408/3/4
f 402/2/4 403/2/4 408/2/4
f 403/3/4 404/3/4 409/3/4
f 408/2/4 403/2/4 409/2/4
f 404/2/4 385/2/4 410/2/4
f 409/3/4 404/3/4 410/3/4
f 378/2/4 405/2/4 411/2/4
f 405/2/4 406/2/4 411/2/4
f 406/3/4 407/3/4 412/3/4
f 411/2/4 406/2/4 412/2/4
f 407/3/4 398/3/4 413/3/4
f 412/3/4 407/3/4 413/3/4
f 408/3/4 409/3/4 414/3/4
f 401/3/4 408/3/4 414/3/4
f 409/2/4 410/2/4 415/2/4
f 414/3/4 409/3/4 415/3/4
f 410/2/4 385/2/4 416/2/4
f 415/2/4 410/2/4 416/2/4
f 411/3/4 412/3/4 417/3/4
f 378/2/4 411/2/4 417/2/4
f 412/2/4 413/2/4 418/2/4
f 417/3/4 412/3/4 418/3/4
f 413/3/4 398/3/4 419/3/4
f 418/2/4 413/2/4 419/2/4
f 398/2/4 399/2/4 420/2/4
f 419/3/4 398/3/4 420/3/4
f 399/3/4 400/3/4 421/3/4
f 420/2/4 399/2/4 421/2/4
f 400/2/4 401/2/4 422/2/4
f 421/3/4 400/3/4 422/3/4
f 401/3/4 414/3/4 423/3/4
f 422/2/4 401/2/4 423/2/4
f 414/2/4 415/2/4 424/2/4
f 423/3/4 414/3/4 424/3/4
f 415/3/4 416/3/4 425/3/4
f 424/2/4 415/2/4 425/2/4
f 416/2/4 385/2/4 426/2/4
f 425/3/4 416/3/4 426/3/4
f 417/2/4 418/2/4 427/2/4
f 418/3/4 419/3/4 427/3/4
f 419/2/4 420/2/4 428/2/4
f 427/3/4 419/3/4 428/3/4
f 422/3/4 423/3/4 429/3/4
f 428/2/4 420/2/4 429/2/4
f 420/3/4 421/3/4 429/3/4
f 421/3/4 422/3/4 429/3/4
f 429/3/4 423/3/4 430/3/4
f 430/3/4 423/3/4 431/3/4
f 423/2/4 424/2/4 432/2/4
f 431/3/4 423/3/4 432/3/4
f 424/3/4 425/3/4 433/3/4
f 432/2/4 424/2/4 433/2/4
f 425/2/4 426/2/4 434/2/4
f 433/3/4 425/3/4 434/3/4
f 377/4/4 378/4/4 435/4/4
f 378/2/4 417/2/4 436/2/4
f 435/4/4 378/4/4 436/4/4
f 427/2/4 428/2/4 436/2/4
f 417/2/4 427/2/4 436/2/4
f 428/3/4 429/3/4 437/3/4
f 436/2/4 428/2/4 437/2/4
f 429/2/4 430/2/4 438/2/4
f 437/3/4 429/3/4 438/3/4
f 430/3/4 431/3/4 439/3/4
f 438/2/4 430/2/4 439/2/4
f 431/2/4 432/2/4 440/2/4
f 439/3/4 431/3/4 440/3/4
f 432/3/4 433/3/4 441/3/4
f 440/2/4 432/2/4 441/2/4
f 433/2/4 434/2/4 442/2/4
f 441/3/4 433/3/4 442/3/4
f 434/2/4 426/2/4 443/2/4
f 442/2/4 434/2/4 443/2/4
f 385/4/4 386/4/4 443/4/4
f 426/2/4 385/2/4 443/2/4
f 443/4/4 386/4/4 444/4/4
f 441/4/4 442/4/4 445/4/4
f 442/4/4 443/4/4 445/4/4
f 436/4/4 437/4/4 445/4/4
f 437/4/4 438/4/4 445/4/4
f 440/4/4 441/4/4 445/4/4
f 438/4/4 439/4/4 445/4/4
f 439/4/4 440/4/4 445/4/4
f 445/4/4 443/4/4 446/4/4
f 449/4/5 448/4/5 447/4/5
f 450/4/5 448/4/5 449/4/5
f 453/4/5 452/4/5 451/4/5
f 454/4/5 452/4/5 453/4/5
f 457/4/5 456/4/5 455/4/5
f 458/4/5 456/4/5 457/4/5
f 464/4/5 460/4/5 459/4/5
f 465/4/5 460/4/5 464/4/5
f 466/4/5 462/4/5 461/4/5
f 467/4/5 462/4/5 466/4/5
f 469/4/5 464/4/5 463/4/5
f 470/4/5 464/4/5 469/4/5
f 475/4/5 468/4/5 467/4/5
f 476/4/5 468/4/5 475/4/5
f 477/4/5 472/4/5 471/4/5
f 478/4/5 472/4/5 477/4/5
f 479/4/5 474/4/5 473/4/5
f 480/4/5 474/4/5 479/4/5
f 481/4/5 479/4/5 478/4/5
f 482/4/5 479/4/5 481/4/5
f 487/4/5 484/4/5 483/4/5
f 488/4/5 484/4/5 487/4/5
f 491/4/5 486/4/5 485/4/5
f 492/4/5 486/4/5 491/4/5
f 493/4/5 489/4/5 488/4/5
f 494/4/5 491/4/5 490/4/5
f 495/4/5 493/4/5 488/4/5
f 495/4/5 494/4/5 493/4/5
f 496/4/5 494/4/5 495/4/5
f 497/4/5 491/4/5 494/4/5
f 497/4/5 494/4/5 496/4/5
f 498/4/5 491/4/5 497/4/5
f 499/4/5 497/4/5 496/4/5
f 500/4/5 497/4/5 499/4/5
f 505/4/5 502/4/5 501/4/5
f 506/4/5 502/4/5 505/4/5
f 507/4/5 504/4/5 503/4/5
f 508/4/5 504/4/5 507/4/5
f 511/4/5 510/4/5 509/4/5
f 512/4/5 510/4/5 511/4/5
f 513/4/5 511/4/5 509/4/5
f 514/4/5 510/4/5 512/4/5
f 515/4/5 513/4/5 509/4/5
f 515/4/5 514/4/5 513/4/5
f 516/4/5 514/4/5 515/4/5
f 517/4/5 510/4/5 514/4/5
f 517/4/5 514/4/5 516/4/5
f 518/4/5 510/4/5 517/4/5
f 519/4/5 517/4/5 516/4/5
f 520/4/5 517/4/5 519/4/5
f 525/1/5 522/1/5 521/1/5
f 526/1/5 522/1/5 525/1/5
f 527/1/5 524/1/5 523/1/5
f 528/1/5 524/1/5 527/1/5
f 529/4/5 526/4/5 525/4/5
f 530/4/5 526/4/5 529/4/5
f 533/4/5 528/4/5 527/4/5
f 534/4/5 528/4/5 533/4/5
f 535/4/5 531/4/5 530/4/5
f 536/4/5 531/4/5 535/4/5
f 537/4/5 533/4/5 532/4/5
f 538/4/5 533/4/5 537/4/5
f 543/1/5 540/1/5 539/1/5
f 544/1/5 540/1/5 543/1/5
f 545/1/5 542/1/5 541/1/5
f 546/1/5 542/1/5 545/1/5
f 547/4/6 548/4/6 551/4/6
f 551/4/6 548/4/6 552/4/6
f 549/4/6 550/4/6 553/4/6
f 553/4/6 550/4/6 554/4/6
f 555/4/6 556/4/6 561/4/6
f 561/4/6 556/4/6 562/4/6
f 557/4/6 558/4/6 563/4/6
f 563/4/6 558/4/6 564/4/6
f 559/4/6 560/4/6 567/4/6
f 567/4/6 560/4/6 568/4/6
f 565/4/6 566/4/6 573/4/6
f 573/4/6 566/4/6 574/4/6
f 569/4/6 570/4/6 575/4/6
f 575/4/6 570/4/6 576/4/6
f 571/4/6 572/4/6 577/4/6
f 577/4/6 572/4/6 578/4/6
f 576/4/6 577/4/6 579/4/6
f 579/4/6 577/4/6 580/4/6
f 580/4/6 577/4/6 581/4/6
f 581/4/6 577/4/6 582/4/6
f 580/4/6 581/4/6 583/4/6
f 583/4/6 581/4/6 584/4/6
f 585/4/6 586/4/6 588/4/6
f 588/4/6 586/4/6 589/4/6
f 587/4/6 588/4/6 591/4/6
f 589/4/6 590/4/6 591/4/6
f 588/4/6 589/4/6 591/4/6
f 591/4/6 590/4/6 592/4/6
f 587/4/6 591/4/6 593/4/6
f 593/4/6 591/4/6 594/4/6
f 594/4/6 591/4/6 595/4/6
f 592/4/6 590/4/6 596/4/6
f 596/4/6 590/4/6 597/4/6
f 597/4/6 590/4/6 598/4/6
f 594/4/6 595/4/6 599/4/6
f 596/4/6 597/4/6 599/4/6
f 595/4/6 596/4/6 599/4/6
f 599/4/6 597/4/6 600/4/6
f 601/1/6 602/1/6 605/1/6
f 605/1/6 602/1/6 606/1/6
f 603/1/6 604/1/6 607/1/6
f 607/1/6 604/1/6 608/1/6
f 609/1/6 610/1/6 614/1/6
f 614/1/6 610/1/6 615/1/6
f 611/1/6 612/1/6 616/1/6
f 616/1/6 612/1/6 617/1/6
f 613/1/6 614/1/6 619/1/6
f 619/1/6 614/1/6 620/1/6
f 617/1/6 618/1/6 621/1/6
f 621/1/6 618/1/6 622/1/6
f 619/4/6 620/4/6 623/4/6
f 623/4/6 620/4/6 624/4/6
f 621/4/6 622/4/6 625/4/6
f 625/4/6 622/4/6 626/4/6
f 624/4/6 625/4/6 627/4/6
f 627/4/6 625/4/6 628/4/6
f 629/1/6 630/1/6 632/1/6
f 632/1/6 630/1/6 633/1/6
f 631/1/6 632/1/6 635/1/6
f 633/1/6 634/1/6 635/1/6
f 632/1/6 633/1/6 635/1/6
f 635/1/6 634/1/6 636/1/6
f 635/4/6 636/4/6 637/4/6
f 637/4/6 636/4/6 638/4/6
